<svg xmlns="http://www.w3.org/2000/svg" width="262" height="262" viewBox="0 0 262 262">
<g>
<path d="M 228.68 243.14 C223.48,250.51 222.52,251.18 219.25,249.71 C216.04,248.26 216.42,245.03 220.47,239.36 C232.42,222.59 240.91,202.05 244.57,180.99 C247.49,164.21 245.80,137.14 240.67,118.50 C231.16,83.96 202.71,49.82 171.36,35.34 C145.64,23.46 116.25,21.93 88.99,31.05 C76.78,35.14 70.56,38.33 59.65,46.11 C33.72,64.59 19.00,91.84 19.00,121.34 C19.00,145.51 27.42,165.59 44.91,183.11 C53.14,191.35 55.84,193.37 64.00,197.35 C76.16,203.29 83.12,205.00 94.96,204.99 C114.02,204.96 128.89,198.95 142.68,185.71 C149.56,179.10 151.87,176.09 155.02,169.54 C159.72,159.80 160.94,154.79 160.98,145.14 C161.12,101.28 113.54,76.98 84.07,105.87 C76.74,113.05 73.63,120.38 73.60,130.56 C73.58,136.32 74.10,138.69 76.43,143.45 C84.19,159.30 99.69,165.56 113.59,158.46 C129.29,150.44 130.26,129.80 115.32,122.12 C110.63,119.72 102.44,121.55 98.60,125.86 C95.81,128.99 91.22,128.74 90.39,125.41 C89.51,121.89 92.44,118.17 98.58,115.01 C105.39,111.50 114.69,111.50 120.96,115.01 C126.08,117.87 132.22,125.46 133.87,130.96 C135.61,136.75 135.23,145.90 133.05,150.69 C127.08,163.84 111.08,172.59 97.57,170.10 C89.19,168.55 83.66,165.74 77.47,159.88 C67.10,150.07 62.42,134.83 65.56,121.05 C67.16,114.00 72.07,104.67 76.82,99.67 C81.25,95.00 90.55,89.32 97.73,86.88 C106.11,84.04 120.50,83.80 129.00,86.36 C146.27,91.56 160.74,106.79 167.63,127.00 C169.06,131.22 169.50,135.41 169.50,145.00 C169.50,154.59 169.06,158.78 167.63,163.00 C151.75,209.63 94.93,228.69 52.88,201.49 C48.85,198.88 41.71,192.87 37.02,188.13 C14.90,165.77 5.69,134.28 11.91,102.22 C14.50,88.84 19.89,76.62 28.84,63.80 C33.10,57.70 48.33,43.09 56.00,37.75 C69.43,28.41 87.25,21.03 104.00,17.89 C112.75,16.24 136.85,16.24 145.50,17.87 C169.41,22.39 190.27,33.00 207.94,49.63 C232.44,72.67 247.39,100.36 253.10,133.27 C255.81,148.93 255.40,174.04 252.19,189.00 C248.35,206.87 238.86,228.72 228.68,243.14 Z" fill="rgb(21,73,27)"/>
<path d="M 0.00 131.00 L 0.00 0.00 L 131.00 0.00 L 262.00 0.00 L 262.00 131.00 L 262.00 262.00 L 131.00 262.00 L 0.00 262.00 L 0.00 131.00 ZM 228.68 243.14 C238.86,228.72 248.35,206.87 252.19,189.00 C255.40,174.04 255.81,148.93 253.10,133.27 C247.39,100.36 232.44,72.67 207.94,49.63 C190.27,33.00 169.41,22.39 145.50,17.87 C136.85,16.24 112.75,16.24 104.00,17.89 C87.25,21.03 69.43,28.41 56.00,37.75 C48.33,43.09 33.10,57.70 28.84,63.80 C19.89,76.62 14.50,88.84 11.91,102.22 C5.69,134.28 14.90,165.77 37.02,188.13 C41.71,192.87 48.85,198.88 52.88,201.49 C94.93,228.69 151.75,209.63 167.63,163.00 C169.06,158.78 169.50,154.59 169.50,145.00 C169.50,135.41 169.06,131.22 167.63,127.00 C160.74,106.79 146.27,91.56 129.00,86.36 C120.50,83.80 106.11,84.04 97.73,86.88 C90.55,89.32 81.25,95.00 76.82,99.67 C72.07,104.67 67.16,114.00 65.56,121.05 C62.42,134.83 67.10,150.07 77.47,159.88 C83.66,165.74 89.19,168.55 97.57,170.10 C111.08,172.59 127.08,163.84 133.05,150.69 C135.23,145.90 135.61,136.75 133.87,130.96 C132.22,125.46 126.08,117.87 120.96,115.01 C114.69,111.50 105.39,111.50 98.58,115.01 C92.44,118.17 89.51,121.89 90.39,125.41 C91.22,128.74 95.81,128.99 98.60,125.86 C102.44,121.55 110.63,119.72 115.32,122.12 C130.26,129.80 129.29,150.44 113.59,158.46 C99.69,165.56 84.19,159.30 76.43,143.45 C74.10,138.69 73.58,136.32 73.60,130.56 C73.63,120.38 76.74,113.05 84.07,105.87 C113.54,76.98 161.12,101.28 160.98,145.14 C160.94,154.79 159.72,159.80 155.02,169.54 C151.87,176.09 149.56,179.10 142.68,185.71 C128.89,198.95 114.02,204.96 94.96,204.99 C83.12,205.00 76.16,203.29 64.00,197.35 C55.84,193.37 53.14,191.35 44.91,183.11 C27.42,165.59 19.00,145.51 19.00,121.34 C19.00,91.84 33.72,64.59 59.65,46.11 C70.56,38.33 76.78,35.14 88.99,31.05 C116.25,21.93 145.64,23.46 171.36,35.34 C202.71,49.82 231.16,83.96 240.67,118.50 C245.80,137.14 247.49,164.21 244.57,180.99 C240.91,202.05 232.42,222.59 220.47,239.36 C216.42,245.03 216.04,248.26 219.25,249.71 C222.52,251.18 223.48,250.51 228.68,243.14 Z" fill="rgb(249,242,228)"/>
</g>
</svg>